<svg xmlns="http://www.w3.org/2000/svg" viewBox="0 0 372.9 60.8"><defs><style>.cls-1{fill:#375c8a;}.cls-2{fill:#7087ad;}.cls-3{fill:#96a6c5;}.cls-4{fill:#003466;}.cls-5{fill:#231f20;}</style></defs><g id="Layer_2" data-name="Layer 2"><g id="Layer_1-2" data-name="Layer 1"><path class="cls-1" d="M59.3,58.2c6.3,0,7.4-1.3,7.4-8.4,0-9.7.6-31.4.6-38.7,0-7.1-1.1-8.4-7.3-8.4V.9c4.1,0,8.2.4,12,.4,3.3,0,5.2-.4,9.1-.4,15.5,0,23.1,5.5,23.1,13.8,0,10.4-8.6,12.7-14.9,14.4v.2c9.5,2.1,18.1,4.5,18.1,15.9C107.4,57.5,94,60.5,84,60.5c-1.3,0-3.1-.1-5-.2s-3.8-.2-5.6-.2H59.3Zm15.4-34c0,3.4.8,3.6,6.3,3.6,10.7,0,15-4.2,15-11.8C96,6.6,91.3,2.6,81.3,2.6c-5,0-6.6,1.9-6.6,6.2Zm0,30.2c0,3.9.9,4.2,8.2,4.2,11,0,16.3-4.9,16.3-13.7,0-10.6-6.9-14.8-18.6-14.8-5.3,0-5.9.8-5.9,5.5Z"></path><path class="cls-2" d="M110.4,58.3c7.8,0,8.9-1.3,8.9-8.4V11.2c0-7.1-1.1-8.4-6.7-8.4V1H137c14.5,0,37.8,7.7,37.8,30.6,0,18.5-15.8,28.6-31.8,28.6H110.5V58.3Zm16.9-7.1c0,4.5,2,7.1,11.2,7.1,16.4,0,26.9-9.9,26.9-26.5,0-17.8-11.4-29-29.1-29-7,0-9,1.2-9,8.4v40Z"></path><path class="cls-3" d="M197.1,19h-1.7c-2.1-6.5-7.5-17-21.1-17-10.6,0-20.9,9.2-20.9,29.1,0,16.4,9.6,27.8,23.3,27.8,9.6,0,16.8-6.6,20.5-15.4h1.9L198,51.8c-.6,4.5-12.5,9-22.5,9-20.5,0-31.3-14.1-31.3-28.9,0-17.7,12-31.8,31.2-31.8,6.5,0,17.7,2.4,22.2,7.2Z"></path><path class="cls-4" d="M0,58.2c6.1-.7,7.7-2.9,14.9-21.5L22.2,18c1.6-4.1,3.2-7.8,3.2-8.8a2.31,2.31,0,0,1,.5-1.7l4.2-6.4C30.8.2,31,0,31.7,0c1.7,0,1.5,2.7,4.2,9.7l14,36c4.3,10.8,5.4,12,11.2,12.4V60H37.9V58.1c5-.5,6.4-1.5,6.4-3.4a21.27,21.27,0,0,0-1.5-6.4L38.4,36.7H17.5L13.6,47.6c-1.2,3.2-1.7,4.5-1.7,6.3,0,3.1,2.2,4.2,6.1,4.4v1.9H0ZM37.4,34.3l-8-20.6c-.6-1.5-1-3.1-1.3-4.1h-.2c-1.1,3.7-3.8,10.4-4.6,12.3L18.5,34.3Z"></path><path class="cls-5" d="M211.8,12.9c1.3-.1,1.6-.6,3.1-4.5l1.5-3.9c.3-.9.7-1.6.7-1.8a.6.6,0,0,1,.1-.4l.9-1.3c.1-.2.2-.2.3-.2.4,0,.3.6.9,2l2.9,7.5c.9,2.3,1.1,2.5,2.4,2.6v.4h-4.9v-.4c1.1-.1,1.3-.3,1.3-.7a3.92,3.92,0,0,0-.3-1.3l-.9-2.4h-4.4l-.8,2.2a3,3,0,0,0-.4,1.3c0,.6.5.9,1.3.9v.4h-3.8v-.4Zm7.9-5L218,3.6l-.3-.9h0a17.86,17.86,0,0,1-1,2.6l-1,2.6Z"></path><path class="cls-5" d="M224.5.9h5.3v.4c-1.9,0-2.1.3-2.1,1.8V9.3c0,2,1.5,3.5,3.9,3.5,2.8,0,3.8-1.5,3.8-5.8V3c0-1.4-.6-1.8-1.9-1.8V.9h4.2v.4c-1.4.2-1.6.5-1.7,3l-.2,4.6c-.1,2.3-.8,4.6-4.8,4.6-3.2,0-5-1.4-5-4.3V3c0-1.5-.2-1.8-1.6-1.8V.9Z"></path><path class="cls-5" d="M246.2,3.9h-.3c-.6-1.8-1.6-2.8-2.9-2.8a2.21,2.21,0,0,0-2.3,2.1c0,3.3,6.5,2.7,6.5,6.5,0,1.6-1.4,3.7-4.4,3.7a8.11,8.11,0,0,1-3.3-.6c-.4-.4-.5-2.5-.5-3.2h.3c.3.8,1.2,3.4,3.6,3.4a2.6,2.6,0,0,0,2.8-2.5c0-3.5-6.5-2.5-6.5-6.6,0-1.6,1.1-3.3,4.2-3.3a6.3,6.3,0,0,1,2.9.6V3.9Z"></path><path class="cls-5" d="M260.7.4V3.7h-.3c-.5-1.8-1.3-2.1-3.4-2.1-1.6,0-1.8.1-1.8,1.7,0,1.8-.2,6.7-.2,7.8,0,1.4.4,1.7,2,1.8v.4h-5.6v-.4c1.8,0,2.1-.3,2.1-1.8,0-1.1.2-5.9.2-7.8,0-1.6,0-1.6-1.6-1.6-2.1,0-2.9.7-3.6,2h-.4l.8-3.3h.4A2.06,2.06,0,0,0,251,1h7.4c1.2,0,1.4-.1,2-.6Z"></path><path class="cls-5" d="M262.1,12.9c1.4,0,1.6-.3,1.6-1.8,0-2.9.1-5.4.1-8.1,0-1.5-.2-1.8-1.4-1.8V.9h3.8c3.2,0,5.3,1,5.3,3.2s-2.3,2.8-2.9,3l3.2,4.8a1.88,1.88,0,0,0,1.7,1.1v.3h-2.2c-.2,0-.4-.1-.8-.7l-3.4-5.2h-1.7v3.8c0,1.5.2,1.8,1.7,1.8v.3h-5v-.4Zm3.4-6c3,0,4.2-.6,4.2-2.8a2.67,2.67,0,0,0-2.9-2.7c-1.1,0-1.3.2-1.3,1V6.9Z"></path><path class="cls-5" d="M275,12.9c1.3-.1,1.6-.6,3.1-4.5l1.5-3.9c.3-.9.7-1.6.7-1.8a.6.6,0,0,1,.1-.4l.9-1.3c.1-.2.2-.2.3-.2.4,0,.3.6.9,2l2.9,7.5c.9,2.3,1.1,2.5,2.4,2.6v.4h-4.9v-.4c1.1-.1,1.3-.3,1.3-.7a3.92,3.92,0,0,0-.3-1.3L283,8.5h-4.4l-.8,2.2a3,3,0,0,0-.4,1.3c0,.6.5.9,1.3.9v.4h-3.8v-.4Zm7.8-5-1.7-4.3-.3-.9h0a17.86,17.86,0,0,1-1,2.6l-1,2.6Z"></path><path class="cls-5" d="M300.6,10.3l-.6,3.2c-.5,0-1.1-.1-1.6-.1h-9.1V13c1.7,0,1.9-.3,1.9-1.8V3c0-1.5-.2-1.8-1.6-1.8V.9h5.2v.4c-1.7,0-1.9.3-1.9,1.8v8.1c0,1.4.2,1.7,1.5,1.7h1.3a4.79,4.79,0,0,0,4.5-2.5h.4Z"></path><path class="cls-5" d="M305,11.1c0,1.5.2,1.8,1.5,1.8v.4h-4.7v-.4c1.3,0,1.5-.3,1.5-1.8V3c0-1.5-.2-1.8-1.5-1.8V.9h5v.4c-1.5,0-1.8.3-1.8,1.8Z"></path><path class="cls-5" d="M308.4,12.9c1.3-.1,1.6-.6,3.1-4.5L313,4.5c.3-.9.7-1.6.7-1.8a.6.6,0,0,1,.1-.4l.9-1.3c.1-.2.2-.2.3-.2.4,0,.3.6.9,2l2.9,7.5c.9,2.3,1.1,2.5,2.4,2.6v.4h-4.9v-.4c1.1-.1,1.3-.3,1.3-.7a3.92,3.92,0,0,0-.3-1.3l-.9-2.4H312l-.8,2.2a3,3,0,0,0-.4,1.3c0,.6.5.9,1.3.9v.4h-3.8v-.4Zm7.8-5-1.7-4.3-.3-.9h0a17.86,17.86,0,0,1-1,2.6l-1,2.6Z"></path><path class="cls-5" d="M322.7,12.9c1.3-.1,1.7-.3,1.7-2V3.1c0-1.5-.7-1.7-2-1.8V.9h3.1c1.5,1.8,7.9,8.7,8.9,9.7.1-2.3.1-5.7.1-7.5,0-1.3-.4-1.6-1.8-1.8V.9h4.2v.4c-1.4.2-1.8.5-1.8,1.8,0,.7-.2,6.8-.3,10.3-.2,0-.3,0-.4-.1-1-1.5-6.4-6.6-9.4-10.5h-.1v8.1c0,1.7.4,1.9,1.7,2l.1.4h-4v-.4Z"></path><path class="cls-5" d="M212.1,36.4c1.3,0,1.5-.3,1.5-1.8,0-2,.1-6.6.1-8.1s-.2-1.8-1.5-1.8v-.4c.9,0,1.7.1,2.5.1s1.1-.1,1.9-.1c3.3,0,4.8,1.2,4.8,2.9,0,2.2-1.8,2.7-3.1,3h0c2,.4,3.8.9,3.8,3.3,0,2.6-2.8,3.2-4.9,3.2H212v-.3Zm3.2-7.1c0,.7.2.8,1.3.8,2.3,0,3.2-.9,3.2-2.5,0-2-1-2.8-3.1-2.8-1,0-1.4.4-1.4,1.3Zm0,6.3c0,.8.2.9,1.7.9,2.3,0,3.4-1,3.4-2.9,0-2.2-1.5-3.1-3.9-3.1-1.1,0-1.2.2-1.2,1.2Z"></path><path class="cls-5" d="M223.5,24.4h5.3v.4c-1.9,0-2.1.3-2.1,1.8v6.2c0,2,1.5,3.5,3.9,3.5,2.8,0,3.8-1.5,3.8-5.8V26.7c0-1.4-.6-1.8-1.9-1.8v-.4h4.2v.4c-1.4.2-1.6.5-1.7,3l-.2,4.6c-.1,2.3-.8,4.6-4.8,4.6-3.2,0-5-1.4-5-4.3V26.6c0-1.5-.2-1.8-1.6-1.8v-.4Z"></path><path class="cls-5" d="M245.6,27.4h-.3c-.6-1.8-1.6-2.8-2.9-2.8a2.21,2.21,0,0,0-2.3,2.1c0,3.3,6.5,2.7,6.5,6.5,0,1.6-1.4,3.7-4.4,3.7a8.11,8.11,0,0,1-3.3-.6c-.4-.4-.5-2.5-.5-3.2h.3c.3.8,1.2,3.4,3.6,3.4a2.6,2.6,0,0,0,2.8-2.5c0-3.5-6.5-2.5-6.5-6.6,0-1.6,1.1-3.3,4.2-3.3a6.3,6.3,0,0,1,2.9.6v2.7Z"></path><path class="cls-5" d="M252.2,34.7c0,1.5.2,1.8,1.5,1.8v.4H249v-.4c1.3,0,1.5-.3,1.5-1.8V26.6c0-1.5-.2-1.8-1.5-1.8v-.4h5v.4c-1.5,0-1.8.3-1.8,1.8v8.1Z"></path><path class="cls-5" d="M256.3,36.4c1.3-.1,1.7-.3,1.7-2V26.6c0-1.5-.7-1.7-2-1.8v-.4h3.1c1.5,1.8,7.9,8.7,8.9,9.7.1-2.3.1-5.7.1-7.5,0-1.3-.4-1.6-1.8-1.8v-.4h4.2v.4c-1.4.2-1.8.5-1.8,1.8,0,.7-.2,6.8-.3,10.3-.2,0-.3,0-.4-.1-1-1.5-6.4-6.6-9.4-10.5h0v8.1c0,1.7.4,1.9,1.7,2l.1.4h-4v-.4Z"></path><path class="cls-5" d="M272.2,36.4c1.6,0,1.8-.3,1.8-1.8,0-2.5.1-5.3.1-8.1,0-1.5-.2-1.8-1.7-1.8v-.4h9.5l.4,2.2H282c-.9-1.1-1.5-1.8-3.3-1.8H277c-1,0-1.2.1-1.2.8v4.3h2c1.7,0,1.8-.3,2.1-1.7h.5v4.3H280c-.3-1.5-.6-1.9-2-1.9h-2.2v4.9c0,.7.3.8,1.3.8h2.6c1.9,0,2.2-.4,3.5-2.5h.4c-.2.5-.5,2.2-.7,2.9H272.3v-.2Z"></path><path class="cls-5" d="M292.7,27.4h-.3c-.6-1.8-1.6-2.8-2.9-2.8a2.21,2.21,0,0,0-2.3,2.1c0,3.3,6.5,2.7,6.5,6.5,0,1.6-1.4,3.7-4.4,3.7a8.11,8.11,0,0,1-3.3-.6c-.4-.4-.5-2.5-.5-3.2h.3c.3.8,1.2,3.4,3.6,3.4a2.6,2.6,0,0,0,2.8-2.5c0-3.5-6.5-2.5-6.5-6.6,0-1.6,1.1-3.3,4.2-3.3a6.3,6.3,0,0,1,2.9.6v2.7Z"></path><path class="cls-5" d="M302.9,27.4h-.3c-.6-1.8-1.6-2.8-2.9-2.8a2.21,2.21,0,0,0-2.3,2.1c0,3.3,6.5,2.7,6.5,6.5,0,1.6-1.4,3.7-4.4,3.7a8.11,8.11,0,0,1-3.3-.6c-.4-.4-.5-2.5-.5-3.2h.3c.3.8,1.2,3.4,3.6,3.4a2.6,2.6,0,0,0,2.8-2.5c0-3.5-6.5-2.5-6.5-6.6,0-1.6,1.1-3.3,4.2-3.3a6.3,6.3,0,0,1,2.9.6v2.7Z"></path><path class="cls-5" d="M310.5,36.4c1.6,0,1.9-.3,1.9-1.8V26.5c0-1.5-.2-1.8-1.4-1.8v-.4h5.1c3,0,7.9,1.6,7.9,6.4,0,3.9-3.3,6-6.7,6h-6.8Zm3.5-1.5c0,.9.4,1.5,2.4,1.5,3.5,0,5.6-2.1,5.6-5.6a5.72,5.72,0,0,0-6.1-6.1c-1.5,0-1.9.3-1.9,1.8Z"></path><path class="cls-5" d="M324.3,36.4c1.6,0,1.8-.3,1.8-1.8,0-2.5.1-5.3.1-8.1,0-1.5-.2-1.8-1.7-1.8v-.4H334l.4,2.2h-.3c-.9-1.1-1.5-1.8-3.3-1.8h-1.7c-1,0-1.2.1-1.2.8v4.3h2c1.7,0,1.8-.3,2.1-1.7h.5v4.3h-.4c-.3-1.5-.6-1.9-2-1.9h-2.2v4.9c0,.7.3.8,1.3.8h2.6c1.9,0,2.2-.4,3.5-2.5h.4c-.2.5-.5,2.2-.7,2.9H324.4v-.2Z"></path><path class="cls-5" d="M336.2,36.4c1.3-.1,1.6-.6,3.1-4.5l1.5-3.9c.3-.9.7-1.6.7-1.8a.6.6,0,0,1,.1-.4l.9-1.3c.1-.2.2-.2.3-.2.4,0,.3.6.9,2l2.9,7.5c.9,2.3,1.1,2.5,2.4,2.6v.4h-4.9v-.4c1.1-.1,1.3-.3,1.3-.7a3.92,3.92,0,0,0-.3-1.3l-.9-2.4h-4.4l-.8,2.2a3,3,0,0,0-.4,1.3c0,.6.5.9,1.3.9v.4h-3.8v-.4Zm7.8-5-1.7-4.3-.3-.9h0a17.86,17.86,0,0,1-1,2.6l-1,2.6Z"></path><path class="cls-5" d="M350,36.4c1.3-.1,1.7-.3,1.7-2V26.6c0-1.5-.7-1.7-2-1.8v-.4h3.1c1.5,1.8,7.9,8.7,8.9,9.7.1-2.3.1-5.7.1-7.5,0-1.3-.4-1.6-1.8-1.8v-.4h4.2v.4c-1.4.2-1.8.5-1.8,1.8,0,.7-.2,6.8-.3,10.3-.2,0-.3,0-.4-.1-1-1.5-6.4-6.6-9.4-10.5h-.1v8.1c0,1.7.4,1.9,1.7,2l.1.4h-4v-.4Z"></path><path class="cls-5" d="M371.9,27.4h-.3c-.6-1.8-1.6-2.8-2.9-2.8a2.21,2.21,0,0,0-2.3,2.1c0,3.3,6.5,2.7,6.5,6.5,0,1.6-1.4,3.7-4.4,3.7a8.11,8.11,0,0,1-3.3-.6c-.4-.4-.5-2.5-.5-3.2h.3c.3.8,1.2,3.4,3.6,3.4a2.6,2.6,0,0,0,2.8-2.5c0-3.5-6.5-2.5-6.5-6.6,0-1.6,1.1-3.3,4.2-3.3a6.3,6.3,0,0,1,2.9.6v2.7Z"></path><path class="cls-5" d="M222.9,51.7h-.4a4.57,4.57,0,0,0-4.4-3.6c-2.2,0-4.4,1.9-4.4,6.1,0,3.5,2,5.8,4.9,5.8a4.84,4.84,0,0,0,4.3-3.2h.4l-.2,1.7c-.1.9-2.6,1.9-4.7,1.9-4.3,0-6.6-3-6.6-6.1a6.35,6.35,0,0,1,6.5-6.7c1.4,0,3.7.5,4.7,1.5Z"></path><path class="cls-5" d="M237.5,54.1a6.5,6.5,0,1,1-6.5-6.4C234.9,47.8,237.5,50.4,237.5,54.1Zm-11.2,0c0,3.7,1.5,6,4.7,6s4.7-2.3,4.7-6-1.5-6-4.7-6S226.3,50.4,226.3,54.1Z"></path><path class="cls-5" d="M238.8,47.9h5.3v.4c-1.9,0-2.1.3-2.1,1.8v6.2c0,2,1.5,3.5,3.9,3.5,2.8,0,3.8-1.5,3.8-5.8V50.2c0-1.4-.6-1.8-1.9-1.8V48H252v.3c-1.4.2-1.6.5-1.7,3l-.2,4.6c-.1,2.3-.8,4.6-4.8,4.6-3.2,0-5-1.4-5-4.3V50c0-1.5-.2-1.8-1.6-1.8v-.3Z"></path><path class="cls-5" d="M253.7,60c1.3-.1,1.7-.3,1.7-2V50.2c0-1.5-.7-1.7-2-1.8V48h3.1c1.5,1.8,7.9,8.7,8.9,9.7.1-2.3.1-5.7.1-7.5,0-1.3-.4-1.6-1.8-1.8V48h4.2v.3c-1.4.2-1.8.5-1.8,1.8,0,.7-.2,6.8-.3,10.3-.2,0-.3,0-.4-.1-1-1.5-6.4-6.6-9.4-10.5h-.1v8.1c0,1.7.4,1.9,1.7,2l.1.4h-4V60Z"></path><path class="cls-5" d="M280.2,51.7h-.4a4.57,4.57,0,0,0-4.4-3.6c-2.2,0-4.4,1.9-4.4,6.1,0,3.5,2,5.8,4.9,5.8a4.84,4.84,0,0,0,4.3-3.2h.4l-.2,1.7c-.1.9-2.6,1.9-4.7,1.9-4.3,0-6.6-3-6.6-6.1a6.35,6.35,0,0,1,6.5-6.7c1.4,0,3.7.5,4.7,1.5Z"></path><path class="cls-5" d="M286,58.2c0,1.5.2,1.8,1.5,1.8v.4h-4.7V60c1.3,0,1.5-.3,1.5-1.8V50.1c0-1.5-.2-1.8-1.5-1.8v-.4h5v.4c-1.5,0-1.8.3-1.8,1.8Z"></path><path class="cls-5" d="M301.1,57.3l-.6,3.2c-.5,0-1.1-.1-1.6-.1h-9.1V60c1.7,0,1.9-.3,1.9-1.8V50.1c0-1.5-.2-1.8-1.6-1.8v-.4h5.2v.4c-1.7,0-1.9.3-1.9,1.8v8.1c0,1.4.2,1.7,1.5,1.7h1.3a4.79,4.79,0,0,0,4.5-2.5h.4Z"></path></g></g></svg>