<svg xmlns="http://www.w3.org/2000/svg" xmlns:xlink="http://www.w3.org/1999/xlink" viewBox="850 512 208 36"><defs><style>.a{clip-path:url(#b);}.b{fill:#fff;}</style><clipPath id="b"><rect x="850" y="512" width="208" height="36"/></clipPath></defs><g id="a" class="a"><rect class="b" x="850" y="512" width="208" height="36"/><g transform="translate(-7 -11)"><rect width="105.264" height="35.849" transform="translate(857 523)"/><g transform="translate(866.611 531.362)"><path class="b" d="M10,28.306V8.7h7.016a9.921,9.921,0,0,1,2.883.384,7.014,7.014,0,0,1,2.883,1.538,5.454,5.454,0,0,1,1.153,1.73,6.821,6.821,0,0,1,.481,2.787v6.632a6.821,6.821,0,0,1-.481,2.787,5.527,5.527,0,0,1-2.211,2.691,6.81,6.81,0,0,1-2.691.865,18.766,18.766,0,0,1-2.211.192H10Zm4.709-3.844H16.92a2.661,2.661,0,0,0,.865-.1,1.874,1.874,0,0,0,1.826-1.73,4.679,4.679,0,0,0,.1-1.153V15.428a3.736,3.736,0,0,0-.192-1.442,1.659,1.659,0,0,0-1.249-1.249c-.1.1-.384.1-.577.1H14.709Z" transform="translate(-10 -8.7)"/><path class="b" d="M34.7,8.8h4.709V21.679a7.274,7.274,0,0,0,.1,1.442,1.632,1.632,0,0,0,1.442,1.442,3.6,3.6,0,0,0,2.018,0,1.845,1.845,0,0,0,1.442-1.538,6.345,6.345,0,0,0,.1-1.346V8.9h4.709V21.775a9.359,9.359,0,0,1-.192,2.307,4.761,4.761,0,0,1-1.249,2.5,5.2,5.2,0,0,1-2.114,1.442,9.9,9.9,0,0,1-3.364.577,15.646,15.646,0,0,1-2.979-.288,6.8,6.8,0,0,1-2.5-1.249,4.7,4.7,0,0,1-1.346-1.73,4.566,4.566,0,0,1-.577-2.307c0-.577-.1-1.057-.1-1.634V9.088A.353.353,0,0,1,34.7,8.8Z" transform="translate(-10.961 -8.704)"/><path class="b" d="M61.3,8.8h4.709v6.632h0l.192-.192c1.442-2.114,2.979-4.133,4.421-6.247.1-.192.192-.192.481-.192h4.709c-.192.192-.384.288-.481.481-1.73,2.307-3.364,4.613-5.094,6.92-.1.1-.1.192,0,.384.865,1.73,1.73,3.556,2.595,5.286,1.057,2.114,2.114,4.229,3.076,6.343,0,.1,0,.1.1.192H70.907c-1.346-2.691-2.691-5.478-4.037-8.169a2.011,2.011,0,0,0-.384.577c-.192.288-.384.481-.577.769v6.824H61.2C61.3,21.775,61.3,15.335,61.3,8.8Z" transform="translate(-11.992 -8.704)"/><path class="b" d="M98.5,8.8v4.037H90.906V16.3h5.67v4.133H90.809v4.037H98.4v3.941H86.1V8.9C90.329,8.8,94.269,8.8,98.5,8.8Z" transform="translate(-12.96 -8.704)"/></g><rect class="b" width="101.396" height="34.888" transform="translate(962.145 523.481)"/><path d="M210.3.961V34.888H109.861V.961H210.3M211.257,0H108.9V35.849H211.257V0Z" transform="translate(852.764 523)"/><g transform="translate(971.371 530.689)"><path d="M121.979,15.981A2.854,2.854,0,0,1,119,13.1v-5h1.922v5.094c0,.769.384,1.153,1.057,1.153s1.057-.384,1.057-1.153V8.1h1.922v5.094A2.727,2.727,0,0,1,121.979,15.981Z" transform="translate(-119 -8.004)"/><path d="M133.721,15.981l-2.5-3.941v3.941H129.3V8.1h1.73l2.5,3.941V8.1h1.922v7.881Z" transform="translate(-119.401 -8.004)"/><path d="M139.7,15.981V8.1h1.922v7.881Z" transform="translate(-119.805 -8.004)"/><path d="M149.037,15.981h-1.442L145,8.1h2.018l1.346,4.421L149.709,8.1h2.018Z" transform="translate(-120.011 -8.004)"/><path d="M155.2,15.981V8.1h5.382V9.83h-3.46v1.346h2.883v1.634h-2.883v1.346h3.46v1.73H155.2Z" transform="translate(-120.408 -8.004)"/><path d="M168.537,15.981,167.095,13h-.673v2.979H164.5V8.1h3.172a2.53,2.53,0,0,1,2.691,2.5,2.245,2.245,0,0,1-1.249,2.018l1.73,3.268h-2.307Zm-.961-6.151h-1.057v1.634h1.057a.786.786,0,0,0,.865-.769A.858.858,0,0,0,167.576,9.83Z" transform="translate(-120.77 -8.004)"/><path d="M176.779,15.985a3.592,3.592,0,0,1-2.979-1.057l1.153-1.153a2.683,2.683,0,0,0,1.73.577c.769,0,1.153-.288,1.153-.673,0-.192,0-.384-.192-.481a.734.734,0,0,0-.481-.192l-.961-.1a2.3,2.3,0,0,1-1.538-.673,2.029,2.029,0,0,1-.577-1.538c0-1.442,1.057-2.5,2.883-2.5a3.561,3.561,0,0,1,2.691.961l-1.249,1.249a2.07,2.07,0,0,0-1.538-.481c-.673,0-.961.384-.961.769a.384.384,0,0,0,.192.384.812.812,0,0,0,.577.192l.961.1a2.3,2.3,0,0,1,1.538.673,2.35,2.35,0,0,1,.577,1.73C179.759,15.12,178.413,15.985,176.779,15.985Z" transform="translate(-121.132 -8.008)"/><path d="M183.8,15.981V8.1h1.922v7.881Z" transform="translate(-121.521 -8.004)"/><path d="M193.244,9.83v6.151h-1.922V9.83H189.4V8.1h5.863V9.83Z" transform="translate(-121.739 -8.004)"/><path d="M202.525,12.709v3.172H200.6V12.709L198.2,8h2.114l1.249,2.883L202.813,8h2.114Z" transform="translate(-122.081 -8)"/><g transform="translate(0.192 12.494)"><path d="M122.276,26.094h-1.153v2.787H119.2V21h3.172a2.53,2.53,0,0,1,2.691,2.5A2.63,2.63,0,0,1,122.276,26.094Zm-.1-3.364h-1.057v1.634h1.057a.786.786,0,0,0,.865-.769A.858.858,0,0,0,122.179,22.73Z" transform="translate(-119.2 -21)"/><path d="M132.837,28.881,131.395,25.9h-.673v2.979H128.8V21h3.172a2.53,2.53,0,0,1,2.691,2.5,2.244,2.244,0,0,1-1.249,2.018l1.73,3.268h-2.307Zm-.961-6.151h-1.057v1.634h1.057a.786.786,0,0,0,.865-.769A.929.929,0,0,0,131.876,22.73Z" transform="translate(-119.573 -21)"/><path d="M138.8,28.881V21h5.382v1.73h-3.46v1.346h2.883v1.73h-2.883v1.346h3.46v1.73H138.8Z" transform="translate(-119.962 -21)"/><path d="M150.379,28.981a3.592,3.592,0,0,1-2.979-1.057l1.249-1.249a2.683,2.683,0,0,0,1.73.577c.769,0,1.153-.288,1.153-.673,0-.192,0-.384-.192-.481a.734.734,0,0,0-.481-.192l-.961-.1a2.3,2.3,0,0,1-1.538-.673,2.029,2.029,0,0,1-.577-1.538c0-1.442,1.057-2.5,2.883-2.5a3.561,3.561,0,0,1,2.691.961l-1.249,1.249a2.07,2.07,0,0,0-1.538-.481c-.673,0-.961.384-.961.769a.384.384,0,0,0,.192.384.812.812,0,0,0,.577.192l.961.1a2.3,2.3,0,0,1,1.538.673,2.35,2.35,0,0,1,.577,1.73C153.455,28.116,152.109,28.981,150.379,28.981Z" transform="translate(-120.297 -21.004)"/><path d="M159.679,28.981a3.592,3.592,0,0,1-2.979-1.057l1.249-1.249a2.683,2.683,0,0,0,1.73.577c.769,0,1.153-.288,1.153-.673,0-.192,0-.384-.192-.481a.734.734,0,0,0-.481-.192l-.961-.1a2.3,2.3,0,0,1-1.538-.673,2.029,2.029,0,0,1-.577-1.538c0-1.442,1.057-2.5,2.883-2.5a3.561,3.561,0,0,1,2.691.961l-1.249,1.249a2.07,2.07,0,0,0-1.538-.481c-.673,0-.961.384-.961.769a.384.384,0,0,0,.192.384.812.812,0,0,0,.577.192l.961.1a2.3,2.3,0,0,1,1.538.673,2.35,2.35,0,0,1,.577,1.73C162.755,28.116,161.313,28.981,159.679,28.981Z" transform="translate(-120.659 -21.004)"/></g></g></g></g></svg>